<svg width="24" height="24" viewBox="0 0 24 24" fill="none" xmlns="http://www.w3.org/2000/svg">
<path fill-rule="evenodd" clip-rule="evenodd" d="M3 11.1111C3 15.5908 6.63147 19.2222 11.1111 19.2222C15.5908 19.2222 19.2222 15.5908 19.2222 11.1111C19.2222 6.63147 15.5908 3 11.1111 3C6.63147 3 3 6.63147 3 11.1111ZM17.2222 11.1111C17.2222 14.4862 14.4862 17.2222 11.1111 17.2222C7.73604 17.2222 5 14.4862 5 11.1111C5 7.73604 7.73604 5 11.1111 5C14.4862 5 17.2222 7.73604 17.2222 11.1111Z" fill="white"/>
<path d="M20.7076 19.2929C21.0981 19.6834 21.0981 20.3165 20.7076 20.7071C20.317 21.0976 19.6839 21.0976 19.2933 20.7071L15.4267 16.8404C15.0362 16.4499 15.0362 15.8167 15.4267 15.4262C15.8172 15.0357 16.4504 15.0357 16.8409 15.4262L20.7076 19.2929Z" fill="white"/>
</svg>
